<svg xmlns="http://www.w3.org/2000/svg" width="192" height="132" fill="none"><path fill="url(#a)" d="M191.995 66a66.5 66.5 0 0 1-9.592 34.377 65.75 65.75 0 0 1-27.839 25.275 63 63 0 0 1-6.489 2.683 65.18 65.18 0 0 1-49.145-2.469 65.65 65.65 0 0 1-27.323-23.914A66.37 66.37 0 0 1 61.11 68.967a66.45 66.45 0 0 1 7.52-33.801A65.8 65.8 0 0 1 92.096 9.859 65.1 65.1 0 0 1 125.043.017a65.06 65.06 0 0 1 33.353 8.333 65.7 65.7 0 0 1 24.574 24.215 66.4 66.4 0 0 1 9.025 33.425z"/><path fill="url(#b)" d="m100.854 106.742-7.231-11.387s20.031-23.343 22.035-24.723c0 0-10.104 17.088-14.804 36.11"/><path fill="url(#c)" d="M93.623 95.355 79.99 107.572 54.91 95.355l-19.188 1.06s11.951 4.071 15.314 3.903l3.368-.168s20.597 20.02 25.333 21.547 20.294-10.445 20.294-10.445l.903-4.474z"/><path fill="url(#d)" d="M131.241 67.868a18.4 18.4 0 0 1-6.024 1.751c-2.419.367-6.095-.987-6.095-.987 2.777-2.204 2.131-7.402 2.131-7.402l.061-.03c2.964-.23 5.443-1.924 7.175-3.563-.626 4.449 2.752 10.231 2.752 10.231"/><path fill="url(#e)" d="M131.241 51.315v3.054a18.6 18.6 0 0 1-2.747 3.252c-1.732 1.645-4.211 3.34-7.175 3.564a9 9 0 0 1-3.959-.586c-8.079-3.054-2.398-19.215-2.398-19.215 2.565-6.577 14.178-3.395 14.178-3.395 1.555 1.868 1.853 7.085 1.793 7.594a10 10 0 0 1-1.01 2.036s2.206-2.097 2.964-.702c.757 1.395-1.646 4.398-1.646 4.398"/><path fill="#262F72" d="M131.241 54.379v-3.054s2.398-2.978 1.641-4.383-2.964.703-2.964.703c.412-.638.751-1.321 1.01-2.037.06-.508-.192-5.43-1.793-7.594 0 0-11.613-3.181-14.178 3.395 0 0-3.323-.85-6.186-4.836-4.681-6.52.909-7.32 6.448-6.062 6.721 1.527 13.457-3.482 21.157 1.608s.798 16.66-5.135 22.26"/><g filter="url(#f)"><path fill="#fff" d="M78.384 25.96H12.868c-1.584 0-2.868 1.295-2.868 2.892V89.75c0 1.597 1.284 2.891 2.868 2.891h65.516c1.584 0 2.868-1.294 2.868-2.891v-60.9c0-1.596-1.284-2.89-2.868-2.89"/></g><path fill="#64B5F6" d="M20.912 38.044a1.54 1.54 0 0 1-.677.448c-.311.11-.64.163-.97.158a1.9 1.9 0 0 1-.979-.244 1.63 1.63 0 0 1-.651-.713 2.5 2.5 0 0 1-.238-1.1v-.295c-.009-.386.065-.77.218-1.125.13-.3.349-.554.626-.727a2.05 2.05 0 0 1 2.156.117c.3.277.482.663.505 1.074h-.864a.87.87 0 0 0-.262-.545.83.83 0 0 0-.556-.173.78.78 0 0 0-.692.341c-.177.308-.26.663-.237 1.018v.275c-.022.358.068.714.258 1.018a.89.89 0 0 0 .752.351c.256.023.51-.054.712-.213v-.749h-.808v-.656h1.697z"/><path fill="#E7EEF2" d="M72.83 34.191H26.404a1.03 1.03 0 0 0-1.025 1.033v3.757c0 .57.46 1.033 1.025 1.033H72.83a1.03 1.03 0 0 0 1.026-1.033v-3.757a1.03 1.03 0 0 0-1.026-1.033"/><path fill="#BBDEFB" d="M73.855 43.303H25.38v1.018h48.475z"/><path fill="#E7E8E9" d="M73.855 45.593H25.38v1.018h48.475zm0 2.291H25.38v1.018h48.475zm0 2.29H25.38v1.019h48.475z"/><path fill="#BBDEFB" d="M73.855 54.46H25.38v1.018h48.475z"/><path fill="#E7E8E9" d="M73.855 56.751H25.38v1.018h48.475zm0 2.291H25.38v1.018h48.475zm0 2.29H25.38v1.018h48.475z"/><path fill="#BBDEFB" d="M73.855 65.491H25.38v1.018h48.475z"/><path fill="#E7E8E9" d="M73.855 67.782H25.38V68.8h48.475zm0 2.29H25.38v1.018h48.475zm0 2.291H25.38v1.018h48.475z"/><path fill="#BBDEFB" d="M73.855 76.522H25.38v1.018h48.475z"/><path fill="#E7E8E9" d="M73.855 78.812H25.38v1.018h48.475zm0 2.291H25.38v1.018h48.475zm0 2.29H25.38v1.018h48.475z"/><path fill="url(#g)" d="M148.707 92.459c3.453 10.364 6.013 22.361 7.761 32.242a53 53 0 0 1-1.904.951 63 63 0 0 1-6.489 2.683 65.18 65.18 0 0 1-49.145-2.469c-.57-.27-1.141-.544-1.702-.829a1816 1816 0 0 1 5.231-26.119c2.894-13.89 7.044-21.455 10.473-25.552l.035-.041a21.4 21.4 0 0 1 2.111-2.189.4.4 0 0 1 .07-.066c.172-.153.344-.295.505-.433 2.066-1.695 3.469-2.005 3.469-2.005l.127.045h.07c1.097.436 2.247.722 3.419.85h.227q1.124.11 2.252.036h.045a14.3 14.3 0 0 0 5.949-1.73c2.15.717 4.176 1.77 6.003 3.12 5.221 3.863 15.739 18.03 15.739 18.03z"/><path fill="url(#h)" d="M167.94 111.802c-.031 1.415-1.308 4.286-3.176 7.768a65 65 0 0 1-8.302 5.131q-.94.494-1.903.951a63 63 0 0 1-6.489 2.683l4.878-15.673L140.325 99.3l8.377-6.84 4.246-3.467s15.123 17.337 14.992 22.809"/><defs><linearGradient id="a" x1="126.788" x2="124.512" y1="7.167" y2="137.263" gradientUnits="userSpaceOnUse"><stop stop-color="#fff" stop-opacity="0"/><stop offset="1" stop-color="#64B5F6" stop-opacity=".6"/></linearGradient><linearGradient id="b" x1="106.231" x2="102.383" y1="68.209" y2="103.452" gradientUnits="userSpaceOnUse"><stop stop-color="#42A5F5"/><stop offset="1" stop-color="#1565C0"/></linearGradient><linearGradient id="c" x1="62.534" x2="104.455" y1="105.322" y2="110.833" gradientUnits="userSpaceOnUse"><stop stop-color="#FFE082"/><stop offset="1" stop-color="#FFA726"/></linearGradient><linearGradient id="d" x1="9417.78" x2="9420.77" y1="2544.52" y2="2315.66" gradientUnits="userSpaceOnUse"><stop stop-color="#FFE082"/><stop offset="1" stop-color="#FFA726"/></linearGradient><linearGradient id="e" x1="14987.3" x2="15780.5" y1="4075.82" y2="4075.82" gradientUnits="userSpaceOnUse"><stop stop-color="#FFE082"/><stop offset="1" stop-color="#FFA726"/></linearGradient><linearGradient id="g" x1="42948.6" x2="48847.7" y1="15103.6" y2="20773.6" gradientUnits="userSpaceOnUse"><stop stop-color="#42A5F5"/><stop offset="1" stop-color="#1565C0"/></linearGradient><linearGradient id="h" x1="23009.9" x2="22606.5" y1="12265.9" y2="9747.27" gradientUnits="userSpaceOnUse"><stop stop-color="#FFE082"/><stop offset="1" stop-color="#FFA726"/></linearGradient><filter id="f" width="91.252" height="86.682" x="0" y="19.96" color-interpolation-filters="sRGB" filterUnits="userSpaceOnUse"><feFlood flood-opacity="0" result="BackgroundImageFix"/><feColorMatrix in="SourceAlpha" result="hardAlpha" values="0 0 0 0 0 0 0 0 0 0 0 0 0 0 0 0 0 0 127 0"/><feOffset dy="4"/><feGaussianBlur stdDeviation="5"/><feColorMatrix values="0 0 0 0 0 0 0 0 0 0 0 0 0 0 0 0 0 0 0.15 0"/><feBlend in2="BackgroundImageFix" result="effect1_dropShadow_1_339"/><feBlend in="SourceGraphic" in2="effect1_dropShadow_1_339" result="shape"/></filter></defs></svg>